<svg xmlns="http://www.w3.org/2000/svg" viewBox="0 0 250.9 361.38">
    <defs>
        <style>.cls-1{fill:#9d9d9d;}</style>
    </defs>
    <title>icon-copyDown</title>
    <g>
        <path
            class="cls-1"
            d="M118,278.7l-.43,80.52a8.17,8.17,0,0,1-5.61,2.07,7.86,7.86,0,0,1-5.38-2.07L1.88,278.7a6.07,6.07,0,0,1-1.17-7.25q1.87-3.93,6.78-3.93H59.83V6.62a6.08,6.08,0,0,1,2.1-4.76A7.82,7.82,0,0,1,67.31,0h44.87a7.81,7.81,0,0,1,5.37,1.86,6.09,6.09,0,0,1,2.1,4.76Z"
        />
        <path class="cls-1" d="M137.86,248.64V361.38h113V248.64Zm88.58,88.95H161.21V272h65.23Z"/>
        <path class="cls-1" d="M137.86,125.56V238.29h113V125.56Zm88.58,88.95H161.21V148.9h65.23Z"/>
        <path class="cls-1" d="M137.86.19V112.92h113V.19Zm88.58,88.95H161.21V23.54h65.23Z"/>
    </g>
</svg>