<svg width="120" height="120" viewBox="0 0 120 120" fill="none" xmlns="http://www.w3.org/2000/svg">
<g clip-path="url(#clip0_360_47)">
<path d="M98.5714 25.7142H111.428C112.565 25.7142 113.655 26.1657 114.459 26.9695C115.263 27.7732 115.714 28.8633 115.714 29.9999V89.9999C115.714 91.1366 115.263 92.2267 114.459 93.0304C113.655 93.8341 112.565 94.2856 111.428 94.2856H8.57136C7.43472 94.2856 6.34463 93.8341 5.5409 93.0304C4.73717 92.2267 4.28564 91.1366 4.28564 89.9999V29.9999C4.28564 28.8633 4.73717 27.7732 5.5409 26.9695C6.34463 26.1657 7.43472 25.7142 8.57136 25.7142H21.4285M59.9999 94.2856V115.714M42.8571 115.714H77.1428M59.9999 4.28564V55.7142" stroke="#2EB187" stroke-width="8.57143" stroke-linecap="round" stroke-linejoin="round"/>
<path d="M42.8572 38.5713L60 55.7141L77.1429 38.5713" stroke="#2EB187" stroke-width="8.57143" stroke-linecap="round" stroke-linejoin="round"/>
</g>
<defs>
<clipPath id="clip0_360_47">
<rect width="120" height="120" fill="white"/>
</clipPath>
</defs>
</svg>
