<svg width="18" height="22" viewBox="0 0 18 22" fill="none" xmlns="http://www.w3.org/2000/svg">
<path d="M17.325 6.825L10.5 0V4.605C4.59 5.34 0 10.38 0 16.5C0 22.62 4.575 27.66 10.5 28.395V25.365C6.24 24.645 3 20.955 3 16.5C3 12.045 6.24 8.355 10.5 7.635V13.5L17.325 6.825ZM23.895 15C23.64 12.915 22.815 10.905 21.465 9.165L19.335 11.295C20.145 12.42 20.655 13.695 20.865 15H23.895ZM13.5 25.35V28.38C15.585 28.125 17.61 27.315 19.35 25.965L17.19 23.805C16.065 24.615 14.805 25.14 13.5 25.35ZM19.335 21.72L21.465 23.835C22.815 22.095 23.64 20.085 23.895 18H20.865C20.655 19.305 20.145 20.58 19.335 21.72Z" transform="scale(0.75)" fill="#828282"/>
</svg>
