<svg xmlns="http://www.w3.org/2000/svg" style="enable-background:new -293 385 47.1 24" viewBox="-293 385 47.1 24">
  <path d="M-285.9 391.3h2v11.4h-2z" class="element"/>
  <path d="M-290.5 396h11.4v2h-11.4zm17.9-3c.7 0 1.3.1 1.8.3.5.2.9.4 1.2.8.3.3.5.7.6 1.2.1.5.2 1 .2 1.5v5.7c-.3.1-.8.2-1.5.3-.7.1-1.4.2-2.3.2-.6 0-1.1-.1-1.5-.2-.5-.1-.9-.3-1.2-.5-.3-.2-.6-.6-.8-.9-.2-.4-.3-.9-.3-1.4 0-.5.1-1 .3-1.4s.5-.7.9-.9c.4-.2.8-.4 1.3-.5.5-.1 1-.2 1.5-.2h.8c.3 0 .5.1.8.2v-.4c0-.3 0-.5-.1-.7l-.3-.6c-.2-.2-.3-.3-.6-.4-.2-.1-.6-.1-.9-.1-.5 0-1 0-1.4.1-.4.1-.8.2-1 .3l-.3-1.8c.3-.1.7-.2 1.2-.3.5-.2 1-.3 1.6-.3zm.2 8.2c.7 0 1.2 0 1.5-.1v-2.4c-.1 0-.3-.1-.5-.1s-.5-.1-.8-.1c-.2 0-.5 0-.7.1-.2 0-.5.1-.7.2-.2.1-.4.2-.5.4s-.2.4-.2.7c0 .5.2.9.5 1.1.4.1.9.2 1.4.2zm14.8-3.2c0 .8-.1 1.4-.3 2-.2.6-.5 1.1-1 1.6s-.9.8-1.5 1c-.6.2-1.3.3-2 .3s-1.4-.1-2.1-.2-1.2-.2-1.6-.4V389l2.2-.4v4.9c.3-.1.6-.3.9-.4.4-.1.8-.2 1.2-.2.7 0 1.3.1 1.8.4.5.2 1 .6 1.3 1 .3.4.6 1 .8 1.6.2.7.3 1.4.3 2.1zm-2.2 0c0-.9-.2-1.7-.5-2.2s-.9-.8-1.7-.8c-.4 0-.7.1-1 .2-.3.1-.6.2-.8.4v5.4c.2 0 .4.1.6.1h.9c.8 0 1.4-.3 1.9-.8s.6-1.4.6-2.3zm3.9 0c0-.7.1-1.3.3-2 .2-.6.5-1.1.9-1.6.4-.4.9-.8 1.5-1s1.2-.4 1.9-.4c.9 0 1.7.2 2.5.5l-.5 1.8c-.3-.1-.5-.2-.9-.3-.3-.1-.7-.1-1-.1-.9 0-1.5.3-1.9.8-.4.5-.7 1.3-.7 2.3 0 .9.2 1.7.6 2.2s1.1.8 2.1.8c.4 0 .7 0 1.1-.1.4-.1.7-.2.9-.3l.3 1.8c-.2.1-.6.2-1.1.3-.5.1-1 .1-1.5.1-.8 0-1.5-.1-2.1-.4s-1.1-.6-1.5-1c-.4-.4-.7-1-.9-1.6.1-.4 0-1.1 0-1.8z" class="element"/>
</svg>
