<svg
	version="1.1"
	xmlns="http://www.w3.org/2000/svg"
	x="0px"
	y="0px"
 	viewBox="-293 385 47.1 24"
	style="enable-background:new -293 385 47.1 24;"
>
	<style type="text/css">
		.st0 {
			display: none;
			fill: none;
			stroke: #E51A1A;
			stroke-width: 5;
			stroke-miterlimit: 10;
		}
		.element {
			fill: #9d9d9d;
		}
	</style>
	<rect
		x="-285.9"
		y="391.3"
		width="2"
		height="11.4"
		class="element"
	/>
	<rect
		x="-290.5"
		y="396"
		width="11.4"
		height="2"
		class="element"
	/>
	<rect
		x="-293"
		y="385"
		class="st0"
		width="24"
		height="24"
	/>
	<g class="element">
		<path
			d="M-272.6,393c0.7,0,1.3,0.1,1.8,0.3c0.5,0.2,0.9,0.4,1.2,0.8c0.3,0.3,0.5,0.7,0.6,1.2c0.1,0.5,0.2,1,0.2,1.5v5.7
			c-0.3,0.1-0.8,0.2-1.5,0.3c-0.7,0.1-1.4,0.2-2.3,0.2c-0.6,0-1.1-0.1-1.5-0.2c-0.5-0.1-0.9-0.3-1.2-0.5c-0.3-0.2-0.6-0.6-0.8-0.9
			c-0.2-0.4-0.3-0.9-0.3-1.4c0-0.5,0.1-1,0.3-1.4s0.5-0.7,0.9-0.9c0.4-0.2,0.8-0.4,1.3-0.5c0.5-0.1,1-0.2,1.5-0.2c0.2,0,0.5,0,0.8,0
			s0.5,0.1,0.8,0.2v-0.4c0-0.3,0-0.5-0.1-0.7c-0.1-0.2-0.2-0.4-0.3-0.6c-0.2-0.2-0.3-0.3-0.6-0.4c-0.2-0.1-0.6-0.1-0.9-0.1
			c-0.5,0-1,0-1.4,0.1c-0.4,0.1-0.8,0.2-1,0.3l-0.3-1.8c0.3-0.1,0.7-0.2,1.2-0.3C-273.7,393.1-273.2,393-272.6,393z M-272.4,401.2
			c0.7,0,1.2,0,1.5-0.1v-2.4c-0.1,0-0.3-0.1-0.5-0.1c-0.2,0-0.5-0.1-0.8-0.1c-0.2,0-0.5,0-0.7,0.1c-0.2,0-0.5,0.1-0.7,0.2
			c-0.2,0.1-0.4,0.2-0.5,0.4s-0.2,0.4-0.2,0.7c0,0.5,0.2,0.9,0.5,1.1C-273.4,401.1-272.9,401.2-272.4,401.2z"
		/>
		<path
			d="M-257.6,398c0,0.8-0.1,1.4-0.3,2c-0.2,0.6-0.5,1.1-1,1.6s-0.9,0.8-1.5,1c-0.6,0.2-1.3,0.3-2,0.3c-0.7,0-1.4-0.1-2.1-0.2
			s-1.2-0.2-1.6-0.4v-13.3l2.2-0.4v4.9c0.3-0.1,0.6-0.3,0.9-0.4c0.4-0.1,0.8-0.2,1.2-0.2c0.7,0,1.3,0.1,1.8,0.4c0.5,0.2,1,0.6,1.3,1
			c0.3,0.4,0.6,1,0.8,1.6C-257.7,396.6-257.6,397.3-257.6,398z M-259.8,398c0-0.9-0.2-1.7-0.5-2.2s-0.9-0.8-1.7-0.8
			c-0.4,0-0.7,0.1-1,0.2c-0.3,0.1-0.6,0.2-0.8,0.4v5.4c0.2,0,0.4,0.1,0.6,0.1c0.2,0,0.5,0,0.9,0c0.8,0,1.4-0.3,1.9-0.8
			S-259.8,398.9-259.8,398z"
		/>
		<path
			d="M-255.9,398c0-0.7,0.1-1.3,0.3-2c0.2-0.6,0.5-1.1,0.9-1.6c0.4-0.4,0.9-0.8,1.5-1s1.2-0.4,1.9-0.4c0.9,0,1.7,0.2,2.5,0.5
			l-0.5,1.8c-0.3-0.1-0.5-0.2-0.9-0.3c-0.3-0.1-0.7-0.1-1-0.1c-0.9,0-1.5,0.3-1.9,0.8c-0.4,0.5-0.7,1.3-0.7,2.3
			c0,0.9,0.2,1.7,0.6,2.2s1.1,0.8,2.1,0.8c0.4,0,0.7,0,1.1-0.1c0.4-0.1,0.7-0.2,0.9-0.3l0.3,1.8c-0.2,0.1-0.6,0.2-1.1,0.3
			c-0.5,0.1-1,0.1-1.5,0.1c-0.8,0-1.5-0.1-2.1-0.4s-1.1-0.6-1.5-1c-0.4-0.4-0.7-1-0.9-1.6C-255.8,399.4-255.9,398.7-255.9,398z"
		/>
	</g>
</svg>
