<svg xmlns="http://www.w3.org/2000/svg" viewBox="0 0 361.38 250.9">
    <defs>
        <style>.cls-1{fill:#9d9d9d;}</style>
    </defs>
    <title>icon-copyRight</title>
    <g>
        <path
            class="cls-1"
            d="M278.7,132.91l80.52.43a8.17,8.17,0,0,1,2.07,5.61,7.86,7.86,0,0,1-2.07,5.38L278.7,249a6.07,6.07,0,0,1-7.25,1.17q-3.93-1.87-3.93-6.78V191.06H6.62A6.08,6.08,0,0,1,1.86,189,7.82,7.82,0,0,1,0,183.58V138.71a7.81,7.81,0,0,1,1.86-5.37,6.09,6.09,0,0,1,4.76-2.1Z"
        />
        <path class="cls-1" d="M248.64,113H361.38V0H248.64Zm88.95-88.58V89.69H272V24.46Z"/>
        <path class="cls-1" d="M125.56,113H238.29V0H125.56ZM214.5,24.46V89.69H148.9V24.46Z"/>
        <path class="cls-1" d="M.19,113H112.92V0H.19ZM89.14,24.46V89.69H23.54V24.46Z"/>
    </g>
</svg>